<?xml version="1.0" standalone="no"?><!DOCTYPE svg PUBLIC "-//W3C//DTD SVG 1.1//EN" "http://www.w3.org/Graphics/SVG/1.1/DTD/svg11.dtd"><svg t="1704958501283" class="icon" viewBox="0 0 1024 1024" version="1.1" xmlns="http://www.w3.org/2000/svg" p-id="4055" xmlns:xlink="http://www.w3.org/1999/xlink" width="30" height="30"><path d="M639.606154 148.086154s168.566154-23.630769 130.756923 226.855384l-69.316923-113.427692s-110.276923 45.686154-207.950769 45.686154c-99.249231 0-207.950769-45.686154-207.95077-45.686154l-66.166153 113.427692C179.593846-44.110769 667.963077 31.507692 685.292308 34.658462c-74.043077 29.932308-45.686154 113.427692-45.686154 113.427692z" fill="#94C1FF" p-id="4056"></path><path d="M639.606154 148.086154S756.184615 127.606154 743.581538 330.830769l26.781539 44.110769c39.384615-250.486154-130.756923-226.855385-130.756923-226.855384z" fill="#5C9EFF" p-id="4057"></path><path d="M601.796923 28.356923c-141.784615-3.150769-412.750769 31.507692-382.818461 346.584615l29.932307-50.412307C252.061538 75.618462 463.163077 29.932308 601.796923 28.356923z" fill="#D7E9FF" p-id="4058"></path><path d="M770.363077 374.941538v31.507693c0 179.593846-170.141538 330.830769-275.692308 330.830769-105.550769 0-275.692308-151.236923-275.692307-330.830769v-31.507693l66.166153-113.427692s108.701538 45.686154 207.95077 45.686154c99.249231 0 207.950769-45.686154 207.950769-45.686154l69.316923 113.427692z" fill="#D7E9FF" p-id="4059"></path><path d="M250.486154 406.449231v-31.507693l59.864615-103.975384c-15.753846-6.301538-25.206154-9.452308-25.206154-9.452308l-66.166153 113.427692v31.507693c0 179.593846 170.141538 330.830769 275.692307 330.830769 4.726154 0 11.027692 0 15.753846-1.575385-105.550769-14.178462-259.938462-159.113846-259.938461-329.255384z" fill="#FFFFFF" p-id="4060"></path><path d="M738.855385 406.449231v-31.507693l-59.864616-103.975384c15.753846-6.301538 25.206154-9.452308 25.206154-9.452308l66.166154 113.427692v31.507693c0 179.593846-170.141538 330.830769-275.692308 330.830769-4.726154 0-11.027692 0-15.753846-1.575385 105.550769-14.178462 259.938462-159.113846 259.938462-329.255384z" fill="#94C1FF" p-id="4061"></path><path d="M496.246154 847.556923c163.84 0 215.827692-116.578462 217.403077-121.304615 7.876923 4.726154 17.329231 9.452308 26.781538 14.178461 0 0-47.261538 138.633846-244.184615 138.633846S252.061538 738.855385 252.061538 738.855385c9.452308-4.726154 18.904615-9.452308 26.781539-14.178462 1.575385 4.726154 51.987692 122.88 217.403077 122.88z" fill="#5C9EFF" p-id="4062"></path><path d="M740.430769 738.855385c-9.452308-4.726154-18.904615-9.452308-26.781538-14.178462-1.575385 3.150769-12.603077 23.630769-14.178462 26.781539 4.726154 3.150769 23.630769 11.027692 28.356923 12.603076 9.452308-14.178462 12.603077-25.206154 12.603077-25.206153zM699.470769 751.458462z" fill="#2287FF" p-id="4063"></path><path d="M252.061538 738.855385c9.452308-4.726154 18.904615-9.452308 26.781539-14.178462 1.575385 3.150769 12.603077 23.630769 14.178461 26.781539-4.726154 3.150769-23.630769 11.027692-28.356923 12.603076-7.876923-14.178462-12.603077-25.206154-12.603077-25.206153zM293.021538 751.458462c1.575385 0 0 0 0 0z" fill="#94C1FF" p-id="4064"></path><path d="M47.261538 926.326154c0-63.015385 31.507692-86.646154 94.523077-110.276923 29.932308-11.027692 78.769231-29.932308 122.88-50.412308-9.452308-14.178462-12.603077-25.206154-12.603077-25.206154-47.261538 23.630769-108.701538 47.261538-141.784615 59.864616-63.015385 23.630769-94.523077 47.261538-94.523077 110.276923v94.523077h31.507692v-78.769231z" fill="#FFFFFF" opacity=".4" p-id="4065"></path><path d="M496.246154 737.28c53.563077 0 124.455385-44.110769 181.169231-110.276923v63.015385c0 9.452308 14.178462 22.055385 36.233846 36.233846-1.575385 4.726154-55.138462 121.304615-217.403077 121.304615-165.415385 0-217.403077-116.578462-218.978462-121.304615 22.055385-12.603077 36.233846-25.206154 36.233846-36.233846v-63.015385c58.289231 66.166154 129.181538 110.276923 182.744616 110.276923z" fill="#D7E9FF" p-id="4066"></path><path d="M496.246154 737.28c-53.563077 0-124.455385-44.110769-181.169231-110.276923v15.753846c56.713846 66.166154 127.606154 110.276923 181.169231 110.276923 53.563077 0 124.455385-44.110769 181.169231-110.276923v-15.753846c-56.713846 66.166154-127.606154 110.276923-181.169231 110.276923z" opacity=".2" p-id="4067"></path><path d="M302.473846 746.732308c20.48-14.178462 44.110769-33.083077 44.110769-42.535385v-29.932308c-11.027692-11.027692-22.055385-22.055385-31.507692-33.083077v47.261539c0 9.452308-33.083077 33.083077-31.507692 31.507692 4.726154 7.876923 11.027692 17.329231 18.904615 26.781539z" fill="#FFFFFF" p-id="4068"></path><path d="M708.923077 721.526154c-4.726154-3.150769-29.932308-22.055385-29.932308-31.507692v-47.261539c-9.452308 12.603077-20.48 23.630769-31.507692 33.083077v29.932308c0 9.452308 23.630769 28.356923 44.110769 40.96-29.932308 36.233846-88.221538 83.495385-193.772308 83.495384-135.483077 0-195.347692-78.769231-212.676923-110.276923-1.575385 1.575385-4.726154 3.150769-6.301538 3.150769 1.575385 4.726154 51.987692 121.304615 218.978461 121.304616 163.84 0 215.827692-116.578462 217.403077-121.304616-3.150769 1.575385-4.726154 0-6.301538-1.575384zM779.815385 784.541538h61.44c-31.507692-12.603077-69.316923-28.356923-100.824616-45.686153 0 0-6.301538 20.48-25.206154 44.110769h64.59077z" fill="#94C1FF" p-id="4069"></path><path d="M567.138462 894.818462c0-7.876923 1.575385-15.753846 3.150769-23.63077-22.055385 4.726154-45.686154 7.876923-74.043077 7.876923C299.323077 879.064615 252.061538 738.855385 252.061538 738.855385c-47.261538 23.630769-108.701538 47.261538-141.784615 59.864615-63.015385 23.630769-94.523077 47.261538-94.523077 110.276923v94.523077h661.661539c-59.864615 1.575385-110.276923-48.836923-110.276923-108.701538z" fill="#94C1FF" p-id="4070"></path><path d="M47.261538 926.326154c0-63.015385 31.507692-86.646154 94.523077-110.276923 29.932308-11.027692 78.769231-29.932308 122.88-50.412308-9.452308-14.178462-12.603077-25.206154-12.603077-25.206154-47.261538 23.630769-108.701538 47.261538-141.784615 59.864616-63.015385 23.630769-94.523077 47.261538-94.523077 110.276923v94.523077h31.507692v-78.769231z" fill="#D7E9FF" p-id="4071"></path><path d="M779.815385 784.541538h61.44c-31.507692-12.603077-69.316923-28.356923-100.824616-45.686153 0 0-3.150769 11.027692-12.603077 25.206153l42.535385 18.904616h9.452308z" fill="#5C9EFF" p-id="4072"></path><path d="M456.861538 437.956923c0 7.876923-6.301538 15.753846-15.753846 15.753846h-110.276923c-7.876923 0-15.753846-7.876923-15.753846-15.753846v-31.507692c0-7.876923 7.876923-15.753846 15.753846-15.753846h110.276923c9.452308 0 15.753846 7.876923 15.753846 15.753846v31.507692z" fill="#94C1FF" p-id="4073"></path><path d="M352.886154 453.710769h33.083077l17.329231-63.015384h-33.083077zM393.846154 453.710769h9.452308l15.753846-63.015384h-7.876923z" fill="#D7E9FF" p-id="4074"></path><path d="M677.415385 437.956923c0 7.876923-6.301538 15.753846-15.753847 15.753846h-110.276923c-7.876923 0-15.753846-7.876923-15.753846-15.753846v-31.507692c0-7.876923 7.876923-15.753846 15.753846-15.753846h110.276923c9.452308 0 15.753846 7.876923 15.753847 15.753846v31.507692z" fill="#94C1FF" p-id="4075"></path><path d="M573.44 453.710769h33.083077l17.329231-63.015384h-33.083077zM614.4 453.710769h9.452308l15.753846-63.015384h-7.876923zM951.532308 913.723077c1.575385 7.876923-3.150769 17.329231-11.027693 18.904615-7.876923 1.575385-17.329231-3.150769-18.904615-11.027692-1.575385-7.876923 3.150769-17.329231 11.027692-18.904615 7.876923-3.150769 17.329231 3.150769 18.904616 11.027692z" fill="#D7E9FF" p-id="4076"></path><path d="M921.6 879.064615c-11.027692 0-20.48-7.876923-23.630769-18.904615-3.150769-12.603077 4.726154-25.206154 17.329231-28.356923 12.603077-3.150769 25.206154 4.726154 28.356923 17.329231 3.150769 12.603077-4.726154 25.206154-17.329231 28.356923-1.575385 1.575385-3.150769 1.575385-4.726154 1.575384z m-7.876923-20.48c1.575385 4.726154 4.726154 6.301538 9.452308 6.301539 4.726154-1.575385 6.301538-4.726154 6.301538-9.452308-1.575385-4.726154-4.726154-6.301538-9.452308-6.301538s-6.301538 4.726154-6.301538 9.452307zM860.16 894.818462c-4.726154 0-7.876923-1.575385-12.603077-3.15077-4.726154-3.150769-9.452308-7.876923-11.027692-14.178461-1.575385-6.301538 0-12.603077 3.150769-17.329231 3.150769-4.726154 7.876923-9.452308 14.178462-11.027692 12.603077-3.150769 25.206154 4.726154 28.356923 17.32923 3.150769 12.603077-4.726154 25.206154-17.329231 28.356924h-1.575385-3.150769z m0-31.507693h-1.575385c-1.575385 0-3.150769 1.575385-4.726153 3.150769-1.575385 1.575385-1.575385 3.150769-1.575385 6.301539 0 1.575385 1.575385 3.150769 3.150769 4.726154 1.575385 1.575385 3.150769 1.575385 6.301539 1.575384 4.726154-1.575385 6.301538-4.726154 4.726153-9.452307 0-4.726154-3.150769-6.301538-6.301538-6.301539z" fill="#3A3847" p-id="4077"></path><path d="M890.092308 927.901538c1.575385 7.876923-3.150769 17.329231-11.027693 18.904616-7.876923 1.575385-17.329231-3.150769-18.904615-11.027692-1.575385-7.876923 3.150769-17.329231 11.027692-18.904616 9.452308-1.575385 17.329231 3.150769 18.904616 11.027692zM937.353846 852.283077c1.575385 7.876923-3.150769 17.329231-11.027692 18.904615-7.876923 1.575385-17.329231-3.150769-18.904616-11.027692-1.575385-7.876923 3.150769-17.329231 11.027693-18.904615 7.876923-3.150769 15.753846 3.150769 18.904615 11.027692zM875.913846 866.461538c1.575385 7.876923-3.150769 17.329231-11.027692 18.904616-7.876923 1.575385-17.329231-3.150769-18.904616-11.027692-1.575385-7.876923 3.150769-17.329231 11.027693-18.904616 7.876923-1.575385 17.329231 3.150769 18.904615 11.027692z" fill="#D7E9FF" p-id="4078"></path><path d="M879.064615 946.806154c7.876923-1.575385 14.178462-11.027692 11.027693-18.904616-1.575385-7.876923-11.027692-14.178462-18.904616-11.027692l61.44-14.178461c-7.876923 1.575385-14.178462 11.027692-11.027692 18.904615 1.575385 7.876923 11.027692 14.178462 18.904615 11.027692l-61.44 14.178462zM905.846154 860.16c1.575385 7.876923 11.027692 14.178462 18.904615 11.027692l-61.44 14.178462c7.876923-1.575385 14.178462-11.027692 11.027693-18.904616-1.575385-7.876923-11.027692-14.178462-18.904616-11.027692l61.44-14.178461c-7.876923 1.575385-12.603077 9.452308-11.027692 18.904615z" fill="#94C1FF" p-id="4079"></path><path d="M677.415385 894.818462m-47.261539 0a47.261538 47.261538 0 1 0 94.523077 0 47.261538 47.261538 0 1 0-94.523077 0Z" fill="#94C1FF" p-id="4080"></path><path d="M645.907692 894.818462c0-23.630769 17.329231-42.535385 39.384616-45.686154-3.150769 0-4.726154-1.575385-7.876923-1.575385-26.781538 0-47.261538 20.48-47.261539 47.261539s20.48 47.261538 47.261539 47.261538c3.150769 0 4.726154 0 7.876923-1.575385-22.055385-3.150769-39.384615-23.630769-39.384616-45.686153z" fill="#D7E9FF" p-id="4081"></path><path d="M708.923077 894.818462c0-23.630769-17.329231-42.535385-39.384615-45.686154 3.150769 0 4.726154-1.575385 7.876923-1.575385 26.781538 0 47.261538 20.48 47.261538 47.261539s-20.48 47.261538-47.261538 47.261538c-3.150769 0-4.726154 0-7.876923-1.575385 22.055385-3.150769 39.384615-23.630769 39.384615-45.686153z" fill="#5C9EFF" p-id="4082"></path><path d="M864.886154 885.366154l61.44-14.178462c7.876923-1.575385 14.178462-11.027692 11.027692-18.904615-1.575385-7.876923-11.027692-14.178462-18.904615-11.027692l-61.44 14.178461c-7.876923 1.575385-14.178462 11.027692-11.027693 18.904616 1.575385 7.876923 9.452308 14.178462 18.904616 11.027692z m67.741538 17.329231l-61.44 14.178461c-7.876923 1.575385-14.178462 11.027692-11.027692 18.904616 1.575385 7.876923 11.027692 14.178462 18.904615 11.027692l61.44-14.178462c7.876923-1.575385 14.178462-11.027692 11.027693-18.904615-1.575385-7.876923-11.027692-14.178462-18.904616-11.027692zM677.415385 942.08c26.781538 0 47.261538-20.48 47.261538-47.261538s-20.48-47.261538-47.261538-47.261539-47.261538 20.48-47.261539 47.261539c0 25.206154 22.055385 47.261538 47.261539 47.261538z m143.36 31.507692h-66.166154c-20.48 18.904615-47.261538 31.507692-77.193846 31.507693-61.44 0-110.276923-48.836923-110.276923-110.276923s48.836923-110.276923 110.276923-110.276924h220.553846c61.44 0 110.276923 48.836923 110.276923 110.276924s-48.836923 110.276923-110.276923 110.276923c-29.932308 0-56.713846-12.603077-77.193846-31.507693z" fill="#5C9EFF" p-id="4083"></path><path d="M582.892308 894.818462c0-61.44 48.836923-110.276923 110.276923-110.276924h-15.753846c-61.44 0-110.276923 48.836923-110.276923 110.276924s48.836923 110.276923 110.276923 110.276923h7.876923c-56.713846-4.726154-102.4-53.563077-102.4-110.276923z" fill="#94C1FF" p-id="4084"></path><path d="M992.492308 894.818462c0-61.44-48.836923-110.276923-110.276923-110.276924h15.753846c61.44 0 110.276923 48.836923 110.276923 110.276924s-48.836923 110.276923-110.276923 110.276923h-7.876923c58.289231-4.726154 102.4-53.563077 102.4-110.276923z" fill="#2287FF" p-id="4085"></path><path d="M494.670769 745.156923c-108.701538 0-283.569231-154.387692-283.569231-338.707692 0-4.726154 3.150769-7.876923 7.876924-7.876923s7.876923 3.150769 7.876923 7.876923c0 174.867692 163.84 322.953846 267.815384 322.953846s267.815385-148.086154 267.815385-322.953846c0-4.726154 3.150769-7.876923 7.876923-7.876923s7.876923 3.150769 7.876923 7.876923c0 182.744615-173.292308 338.707692-283.569231 338.707692zM218.978462 382.818462h-1.575385c-3.150769 0-6.301538-3.150769-6.301539-6.301539-11.027692-115.003077 17.329231-203.224615 81.92-263.089231 133.907692-124.455385 382.818462-86.646154 393.846154-85.070769 3.150769 0 6.301538 3.150769 6.301539 6.301539s-1.575385 6.301538-4.726154 7.876923c-56.713846 23.630769-47.261538 78.769231-42.535385 97.673846 17.329231 0 61.44 1.575385 96.098462 36.233846 39.384615 39.384615 50.412308 107.126154 36.233846 200.073846 0 3.150769-3.150769 6.301538-6.301538 6.301539s-6.301538-1.575385-7.876924-3.15077l-66.166153-107.126154c-25.206154 9.452308-118.153846 44.110769-204.8 44.11077s-179.593846-33.083077-204.8-42.535385l-63.015385 107.126154s-3.150769 1.575385-6.301538 1.575385z m482.067692-129.181539c3.150769 0 4.726154 1.575385 6.301538 3.150769l58.289231 94.523077c9.452308-77.193846-3.150769-132.332308-34.658461-165.415384-36.233846-37.809231-88.221538-31.507692-89.796924-31.507693-3.150769 0-7.876923-1.575385-7.876923-4.726154 0-1.575385-23.630769-72.467692 28.356923-110.276923-66.166154-6.301538-250.486154-15.753846-357.612307 83.495385-56.713846 51.987692-81.92 127.606154-78.769231 225.28l53.563077-91.372308c1.575385-3.150769 6.301538-4.726154 9.452308-3.150769 1.575385 0 108.701538 44.110769 204.8 44.110769s204.8-44.110769 206.375384-44.110769h1.575385zM582.892308 1012.972308H15.753846c-4.726154 0-7.876923-3.150769-7.876923-7.876923v-94.523077c0-67.741538 34.658462-92.947692 99.249231-118.153846 193.772308-72.467692 200.073846-99.249231 200.073846-102.4 0-4.726154 3.150769-7.876923 7.876923-7.876924s7.876923 3.150769 7.876923 7.876924c0 11.027692 0 39.384615-209.526154 118.153846-59.864615 22.055385-89.796923 44.110769-89.796923 102.4v86.646154H582.892308c4.726154 0 7.876923 3.150769 7.876923 7.876923s-3.150769 7.876923-7.876923 7.876923zM756.184615 754.609231h-3.150769c-74.043077-34.658462-83.495385-53.563077-83.495384-64.590769 0-4.726154 3.150769-7.876923 7.876923-7.876924s7.876923 3.150769 7.876923 7.876924c0 3.150769 3.150769 17.329231 74.043077 50.412307 3.150769 1.575385 6.301538 6.301538 3.150769 11.027693 0 1.575385-3.150769 3.150769-6.301539 3.150769z" fill="#116FFF" p-id="4086"></path><path d="M315.076923 697.895385c-4.726154 0-7.876923-3.150769-7.876923-7.876923v-53.563077c0-4.726154 3.150769-7.876923 7.876923-7.876923s7.876923 3.150769 7.876923 7.876923v53.563077c0 3.150769-3.150769 7.876923-7.876923 7.876923zM677.415385 697.895385c-4.726154 0-7.876923-3.150769-7.876923-7.876923v-56.713847c0-4.726154 3.150769-7.876923 7.876923-7.876923s7.876923 3.150769 7.876923 7.876923v56.713847c0 3.150769-3.150769 7.876923-7.876923 7.876923zM496.246154 886.941538c-200.073846 0-250.486154-143.36-252.061539-144.935384-1.575385-4.726154 1.575385-7.876923 4.726154-9.452308 4.726154-1.575385 7.876923 0 9.452308 4.726154 1.575385 4.726154 48.836923 133.907692 236.307692 133.907692 12.603077 0 26.781538 0 37.809231-1.575384 4.726154 0 7.876923 3.150769 7.876923 6.301538 0 4.726154-3.150769 7.876923-6.301538 7.876923-9.452308 1.575385-23.630769 3.150769-37.809231 3.150769z" fill="#116FFF" p-id="4087"></path><path d="M496.246154 855.433846c-173.292308 0-225.28-126.030769-225.28-127.606154-1.575385-4.726154 0-7.876923 4.726154-9.452307 4.726154-1.575385 7.876923 0 9.452307 4.726153 0 1.575385 47.261538 116.578462 211.101539 116.578462 12.603077 0 26.781538 0 37.809231-1.575385 4.726154 0 7.876923 3.150769 9.452307 6.301539 0 4.726154-3.150769 7.876923-6.301538 9.452308-12.603077 0-26.781538 1.575385-40.96 1.575384zM441.107692 461.587692h-110.276923c-12.603077 0-23.630769-11.027692-23.630769-23.630769v-31.507692c0-12.603077 11.027692-23.630769 23.630769-23.630769h110.276923c12.603077 0 23.630769 11.027692 23.63077 23.630769v31.507692c0 12.603077-9.452308 23.630769-23.63077 23.630769z m-110.276923-63.015384c-4.726154 0-7.876923 3.150769-7.876923 7.876923v31.507692c0 4.726154 3.150769 7.876923 7.876923 7.876923h110.276923c4.726154 0 7.876923-3.150769 7.876923-7.876923v-31.507692c0-4.726154-3.150769-7.876923-7.876923-7.876923h-110.276923zM661.661538 461.587692h-110.276923c-12.603077 0-23.630769-11.027692-23.630769-23.630769v-31.507692c0-12.603077 11.027692-23.630769 23.630769-23.630769h110.276923c12.603077 0 23.630769 11.027692 23.63077 23.630769v31.507692c0 12.603077-9.452308 23.630769-23.63077 23.630769z m-110.276923-63.015384c-4.726154 0-7.876923 3.150769-7.876923 7.876923v31.507692c0 4.726154 3.150769 7.876923 7.876923 7.876923h110.276923c4.726154 0 7.876923-3.150769 7.876924-7.876923v-31.507692c0-4.726154-3.150769-7.876923-7.876924-7.876923h-110.276923z" fill="#116FFF" p-id="4088"></path><path d="M535.630769 430.08h-78.769231c-4.726154 0-7.876923-3.150769-7.876923-7.876923s3.150769-7.876923 7.876923-7.876923h78.769231c4.726154 0 7.876923 3.150769 7.876923 7.876923s-3.150769 7.876923-7.876923 7.876923z" fill="#116FFF" p-id="4089"></path><path d="M897.969231 792.418462H677.415385c-4.726154 0-7.876923-3.150769-7.876923-7.876924s3.150769-7.876923 7.876923-7.876923h220.553846c4.726154 0 7.876923 3.150769 7.876923 7.876923s-3.150769 7.876923-7.876923 7.876924zM820.775385 981.464615h-66.166154c-4.726154 0-7.876923-3.150769-7.876923-7.876923s3.150769-7.876923 7.876923-7.876923h66.166154c4.726154 0 7.876923 3.150769 7.876923 7.876923s-3.150769 7.876923-7.876923 7.876923z" fill="#116FFF" p-id="4090"></path><path d="M677.415385 1012.972308c-64.590769 0-118.153846-53.563077-118.153847-118.153846s53.563077-118.153846 118.153847-118.153847c4.726154 0 7.876923 3.150769 7.876923 7.876923s-3.150769 7.876923-7.876923 7.876924c-56.713846 0-102.4 45.686154-102.4 102.4s45.686154 102.4 102.4 102.4c26.781538 0 51.987692-11.027692 70.892307-29.932308 3.150769-3.150769 7.876923-3.150769 11.027693 0s3.150769 7.876923 0 11.027692c-20.48 22.055385-50.412308 34.658462-81.92 34.658462zM897.969231 1012.972308c-31.507692 0-59.864615-12.603077-81.92-33.083077-3.150769-3.150769-3.150769-7.876923 0-11.027693 3.150769-3.150769 7.876923-3.150769 11.027692 0 18.904615 18.904615 44.110769 29.932308 70.892308 29.932308 56.713846 0 102.4-45.686154 102.4-102.4s-45.686154-102.4-102.4-102.4c-4.726154 0-7.876923-3.150769-7.876923-7.876923s3.150769-7.876923 7.876923-7.876923c64.590769 0 118.153846 53.563077 118.153846 118.153846s-51.987692 116.578462-118.153846 116.578462z" fill="#116FFF" p-id="4091"></path><path d="M677.415385 949.956923c-29.932308 0-55.138462-25.206154-55.138462-55.138461s25.206154-55.138462 55.138462-55.138462 55.138462 25.206154 55.138461 55.138462-23.630769 55.138462-55.138461 55.138461z m0-94.523077c-22.055385 0-39.384615 17.329231-39.384616 39.384616s17.329231 39.384615 39.384616 39.384615 39.384615-17.329231 39.384615-39.384615-17.329231-39.384615-39.384615-39.384616z" fill="#116FFF" p-id="4092"></path><path d="M677.415385 918.449231c-4.726154 0-7.876923-3.150769-7.876923-7.876923v-31.507693c0-4.726154 3.150769-7.876923 7.876923-7.876923s7.876923 3.150769 7.876923 7.876923v31.507693c0 3.150769-3.150769 7.876923-7.876923 7.876923z" fill="#116FFF" p-id="4093"></path><path d="M693.169231 902.695385h-31.507693c-4.726154 0-7.876923-3.150769-7.876923-7.876923s3.150769-7.876923 7.876923-7.876924h31.507693c4.726154 0 7.876923 3.150769 7.876923 7.876924s-3.150769 7.876923-7.876923 7.876923zM860.16 894.818462c-4.726154 0-7.876923-1.575385-12.603077-3.15077-4.726154-3.150769-9.452308-7.876923-11.027692-14.178461-1.575385-6.301538 0-12.603077 3.150769-17.329231 3.150769-4.726154 7.876923-9.452308 14.178462-11.027692 12.603077-3.150769 25.206154 4.726154 28.356923 17.32923 1.575385 6.301538 0 12.603077-3.15077 17.329231-3.150769 4.726154-7.876923 9.452308-14.178461 11.027693h-4.726154z m0-31.507693h-1.575385c-1.575385 0-3.150769 1.575385-4.726153 3.150769-1.575385 1.575385-1.575385 3.150769-1.575385 6.301539s1.575385 3.150769 3.150769 4.726154c1.575385 1.575385 3.150769 1.575385 6.301539 1.575384s3.150769-1.575385 4.726153-3.150769c1.575385-1.575385 1.575385-3.150769 1.575385-6.301538-1.575385-4.726154-4.726154-6.301538-7.876923-6.301539zM921.6 879.064615c-4.726154 0-7.876923-1.575385-12.603077-3.150769-4.726154-3.150769-9.452308-7.876923-11.027692-14.178461-1.575385-6.301538 0-12.603077 3.150769-17.329231 3.150769-4.726154 7.876923-9.452308 14.178462-11.027692 12.603077-3.150769 25.206154 4.726154 28.356923 17.32923 3.150769 12.603077-4.726154 25.206154-17.329231 28.356923h-4.726154z m0-31.507692h-1.575385c-1.575385 0-3.150769 1.575385-4.726153 3.150769-1.575385 3.150769-1.575385 4.726154-1.575385 7.876923 0 1.575385 1.575385 3.150769 3.150769 4.726154 1.575385 1.575385 3.150769 1.575385 6.301539 1.575385 4.726154-1.575385 6.301538-4.726154 6.301538-9.452308 0-1.575385-1.575385-3.150769-3.150769-4.726154-1.575385-1.575385-3.150769-3.150769-4.726154-3.150769zM874.338462 956.258462c-4.726154 0-7.876923-1.575385-12.603077-3.15077-4.726154-3.150769-9.452308-7.876923-11.027693-14.178461-3.150769-12.603077 4.726154-25.206154 17.329231-28.356923 6.301538-1.575385 12.603077 0 17.329231 3.150769s9.452308 7.876923 11.027692 14.178461c1.575385 6.301538 0 12.603077-3.150769 17.329231-3.150769 4.726154-7.876923 9.452308-14.178462 11.027693h-4.726153z m0-31.507693h-1.575385c-4.726154 1.575385-6.301538 4.726154-6.301539 9.452308 0 1.575385 1.575385 3.150769 3.15077 4.726154 1.575385 1.575385 3.150769 1.575385 6.301538 1.575384 1.575385 0 3.150769-1.575385 4.726154-3.150769 1.575385-1.575385 1.575385-3.150769 1.575385-6.301538 0-1.575385-1.575385-3.150769-3.15077-4.726154-1.575385-1.575385-3.150769-1.575385-4.726153-1.575385zM935.778462 940.504615c-11.027692 0-20.48-7.876923-23.63077-18.904615-1.575385-6.301538 0-12.603077 3.15077-17.329231 3.150769-4.726154 7.876923-9.452308 14.178461-11.027692 6.301538-1.575385 12.603077 0 17.329231 3.150769 4.726154 3.150769 9.452308 7.876923 11.027692 14.178462 3.150769 12.603077-4.726154 25.206154-17.329231 28.356923 0 1.575385-1.575385 1.575385-4.726153 1.575384z m0-31.507692h-1.575385c-1.575385 0-3.150769 1.575385-4.726154 3.150769-1.575385 1.575385-1.575385 3.150769-1.575385 6.301539 1.575385 4.726154 4.726154 6.301538 9.452308 6.301538 1.575385 0 3.150769-1.575385 4.726154-3.150769 1.575385-1.575385 1.575385-3.150769 1.575385-6.301538 0-1.575385-1.575385-3.150769-3.15077-4.726154-1.575385 0-3.150769-1.575385-4.726153-1.575385z" fill="#116FFF" p-id="4094"></path><path d="M857.009231 863.310769c-3.150769 0-6.301538-3.150769-7.876923-6.301538-1.575385-4.726154 1.575385-7.876923 6.301538-9.452308l61.44-14.178461c4.726154-1.575385 7.876923 1.575385 9.452308 6.301538s-1.575385 7.876923-6.301539 9.452308l-61.44 14.178461h-1.575384zM863.310769 893.243077c-3.150769 0-6.301538-3.150769-7.876923-6.301539-1.575385-4.726154 1.575385-7.876923 6.301539-9.452307l61.44-14.178462c4.726154-1.575385 7.876923 1.575385 9.452307 6.301539s-1.575385 7.876923-6.301538 9.452307l-59.864616 14.178462h-3.150769zM871.187692 924.750769c-3.150769 0-6.301538-3.150769-7.876923-6.301538-1.575385-4.726154 1.575385-7.876923 6.301539-9.452308l61.44-14.178461c4.726154-1.575385 7.876923 1.575385 9.452307 6.301538s-1.575385 7.876923-6.301538 9.452308l-61.44 14.178461h-1.575385zM879.064615 954.683077c-3.150769 0-6.301538-3.150769-7.876923-6.301539-1.575385-4.726154 1.575385-7.876923 6.301539-9.452307l61.44-14.178462c4.726154-1.575385 7.876923 1.575385 9.452307 6.301539s-1.575385 7.876923-6.301538 9.452307l-61.44 14.178462h-1.575385zM771.938462 934.203077h-15.753847c-4.726154 0-7.876923-3.150769-7.876923-7.876923s3.150769-7.876923 7.876923-7.876923h15.753847c4.726154 0 7.876923 3.150769 7.876923 7.876923s-3.150769 7.876923-7.876923 7.876923zM819.2 934.203077h-15.753846c-4.726154 0-7.876923-3.150769-7.876923-7.876923s3.150769-7.876923 7.876923-7.876923h15.753846c4.726154 0 7.876923 3.150769 7.876923 7.876923s-3.150769 7.876923-7.876923 7.876923zM787.692308 776.664615c-4.726154 0-7.876923-3.150769-7.876923-7.876923 0-22.055385 17.329231-39.384615 39.384615-39.384615 4.726154 0 7.876923 3.150769 7.876923 7.876923s-3.150769 7.876923-7.876923 7.876923c-12.603077 0-23.630769 11.027692-23.630769 23.630769 0 3.150769-3.150769 7.876923-7.876923 7.876923zM834.953846 745.156923c-4.726154 0-7.876923-3.150769-7.876923-7.876923s3.150769-7.876923 7.876923-7.876923c12.603077 0 23.630769-11.027692 23.630769-23.630769s-11.027692-23.630769-23.630769-23.63077c-4.726154 0-7.876923-3.150769-7.876923-7.876923s3.150769-7.876923 7.876923-7.876923c22.055385 0 39.384615 17.329231 39.384616 39.384616s-17.329231 39.384615-39.384616 39.384615z" fill="#116FFF" p-id="4095"></path><path d="M834.953846 745.156923h-15.753846c-4.726154 0-7.876923-3.150769-7.876923-7.876923s3.150769-7.876923 7.876923-7.876923h15.753846c4.726154 0 7.876923 3.150769 7.876923 7.876923s-3.150769 7.876923-7.876923 7.876923zM834.953846 682.141538h-127.606154c-4.726154 0-7.876923-3.150769-7.876923-7.876923s3.150769-7.876923 7.876923-7.876923H834.953846c4.726154 0 7.876923 3.150769 7.876923 7.876923s-3.150769 7.876923-7.876923 7.876923z" fill="#116FFF" p-id="4096"></path></svg>